<?xml version="1.0" encoding="utf-8"?>
<!-- Generator: Adobe Illustrator 24.1.3, SVG Export Plug-In . SVG Version: 6.00 Build 0)  -->
<svg version="1.1" id="Layer_1" xmlns="http://www.w3.org/2000/svg" xmlns:xlink="http://www.w3.org/1999/xlink" x="0px" y="0px"
	 viewBox="0 0 1000 1000" style="enable-background:new 0 0 1000 1000;" xml:space="preserve">
<style type="text/css">
	.st0{fill:none;stroke:#000000;stroke-width:10;stroke-miterlimit:10;}
	.st1{font-family:'PTSans-NarrowBold';}
	.st2{font-size:59.6461px;}
</style>
<g>
	<path class="st0" d="M547,290.2l-172.3-64.4l64.4-172.3L576,104.7c19.5,7.3,29.4,29,22.1,48.5L547,290.2z"/>
	<g>
		<text transform="matrix(0.9367 0.3501 -0.3501 0.9367 440.0653 138.0515)"><tspan x="0" y="0" class="st1 st2">0100</tspan><tspan x="0" y="71.6" class="st1 st2">1001</tspan></text>
	</g>
</g>
<g>
	<path class="st0" d="M506.1,386.1l-154.7,99.4L252,330.8l123-79c17.5-11.3,40.9-6.2,52.1,11.3L506.1,386.1z"/>
	<g>
		<text transform="matrix(0.8412 -0.5407 0.5407 0.8412 320.2641 380.612)"><tspan x="0" y="0" class="st1 st2">0100</tspan><tspan x="0" y="71.6" class="st1 st2">1001</tspan></text>
	</g>
</g>
<g>
	<path class="st0" d="M728.2,467.4L546,442.2L571.3,260l144.8,20.1c20.6,2.9,35.1,21.9,32.2,42.5L728.2,467.4z"/>
	<g>
		<text transform="matrix(0.9905 0.1372 -0.1372 0.9905 590.6703 342.324)"><tspan x="0" y="0" class="st1 st2">0100</tspan><tspan x="0" y="71.6" class="st1 st2">1001</tspan></text>
	</g>
</g>
<path d="M488.1,529.2c14.7-8.7,33.7-4.1,42.4,11.5c8.7,14.7,3.4,34-11.2,42.4L262.5,731.5c-15,8.7-34,3.7-42.8-11.2
	c-8.7-15-3.4-34,11.5-42.8L488.1,529.2 M347.7,946.5l-37.8-188.2l231.6-133.6c24.7-13.4,40.3-39,40.3-68.4c0-43.1-35-78-78-78
	c-14.7,0-28.4,4.1-40.3,11.2L277.7,596.6L254,478.3h-31.2v-62.4h561.8v62.4h-31.2l-93.6,468.2H347.7z"/>
</svg>
